<?xml version="1.0" encoding="UTF-8"?>
<svg width="579px" height="412px" viewBox="0 0 579 412" version="1.1" xmlns="http://www.w3.org/2000/svg" xmlns:xlink="http://www.w3.org/1999/xlink">
    <!-- Generator: Sketch 46.1 (44463) - http://www.bohemiancoding.com/sketch -->
    <title>upload</title>
    <desc>Created with Sketch.</desc>
    <defs>
        <rect id="path-1" x="0" y="0" width="579" height="412" rx="33"></rect>
        <mask id="mask-2" maskContentUnits="userSpaceOnUse" maskUnits="objectBoundingBox" x="0" y="0" width="579" height="412" fill="white">
            <use xlink:href="#path-1"></use>
        </mask>
    </defs>
    <g id="Page-1" stroke="none" stroke-width="1" fill="none" fill-rule="evenodd" opacity="0.44774683">
        <g id="Desktop-HD" transform="translate(-126.000000, -141.000000)" stroke="#444444">
            <g id="upload" transform="translate(126.000000, 141.000000)">
                <use id="Rectangle" mask="url(#mask-2)" stroke-width="22" stroke-dasharray="16" xlink:href="#path-1"></use>
                <g id="mountain-4" transform="translate(217.000000, 124.000000)" stroke-width="3.88000011" stroke-linecap="round" stroke-linejoin="round">
                    <polygon id="Shape" points="96.7991625 92.7745108 92.5778109 88.5536401 88.3509287 92.7745108 92.5778109 88.5536401"></polygon>
                    <polygon id="Shape" points="86.2434992 101.216733 92.5778109 94.8824212 98.9094776 101.216733 92.5778109 94.8824212"></polygon>
                    <polygon id="Shape" points="101.020033 109.658715 92.5778109 101.216733 84.1329436 109.658715 92.5778109 101.216733"></polygon>
                    <polygon id="Shape" points="116.917852 102.83097 112.696741 98.6100995 108.472985 102.83097 112.696741 98.6100995"></polygon>
                    <polygon id="Shape" points="106.362189 111.278964 112.696741 104.944652 119.028167 111.278964 112.696741 104.944652"></polygon>
                    <path d="M144.882653,124.763723 C144.882653,120.319942 121.467438,116.715141 92.5778109,116.715141 C63.6881841,116.715141 40.273209,120.319701 40.273209,124.763723 C40.273209,126.706915 44.7612355,128.491642 52.2346269,129.877197 C40.2818657,131.274536 32.227272,133.863375 32.227272,136.834071 C32.227272,141.277852 50.2414179,144.882653 72.4591211,144.882653 C94.6857214,144.882653 112.693615,141.278093 112.693615,136.834071 C112.693615,135.243159 110.354138,133.763582 106.379743,132.513167 C128.562338,131.585697 144.882653,128.468317 144.882653,124.763723 Z" id="Shape"></path>
                    <path d="M92.5778109,116.715381 C117.812861,116.715381 138.859262,119.462927 143.787819,123.120149 L96.5995771,52.3375456 L51.653665,119.762065 C61.2342454,117.906882 75.9905804,116.715381 92.5778109,116.715381 Z" id="Shape"></path>
                    <polygon id="Shape" points="39.9358375 117.167214 28.534942 101.962172 37.082728 101.962172 27.108267 88.6594444 34.2322637 88.6594444 25.6847181 77.2585489 31.3820398 77.2585489 24.2611692 67.7654975 28.534942 67.7654975 19.9813847 56.3648425 11.4338391 67.7654975 15.7104975 67.7654975 8.58337479 77.2585489 14.2867081 77.2585489 5.73315091 88.6594444 12.8600332 88.6594444 2.88605307 101.962172 11.4338391 101.962172 0.0384742952 117.167214"></polygon>
                    <rect id="Rectangle-path" x="17.8475041" y="117.167214" width="4.27088723" height="7.59674959"></rect>
                    <polygon id="Shape" points="4.59407131 117.167214 0.0384742952 124.763723 17.8475041 124.763723 17.8475041 117.167214"></polygon>
                    <path d="M51.653665,119.762065 L86.4344279,67.5837065 L60.3890133,24.1760448 L29.8029104,75.1508789 L31.3817993,77.2585489 L28.5347015,77.2585489 L27.266733,79.3777612 L34.2322637,88.6594444 L27.108267,88.6594444 L37.0824876,101.962172 L28.5347015,101.962172 L39.935597,117.166973 L22.1179104,117.166973 L22.1179104,124.763723 L40.2729685,124.763723 C40.273209,122.873433 44.5501078,121.130066 51.653665,119.762065 Z" id="Shape"></path>
                    <path d="M64.410539,127.440813 C67.9886484,125.967247 71.8250166,126.073051 75.1388557,127.440813 L75.1448673,127.446584 C78.461592,128.814345 82.2982007,128.920149 85.870539,127.446584 L85.8676534,127.440813 C89.4488889,125.967247 93.285257,126.073051 96.5993367,127.440813 C93.285257,126.073051 89.4488889,125.967247 85.8676534,127.440813 L85.870539,127.446584 C82.2984411,128.920149 78.461592,128.814345 75.1448673,127.446584 L75.1388557,127.440813 C71.8250166,126.073051 67.9886484,125.967247 64.410539,127.440813 Z" id="Shape"></path>
                    <path d="M85.8707794,134.151211 C82.2986816,135.630547 78.4618325,135.524983 75.1451078,134.151211 C78.4618325,135.524743 82.2984411,135.630547 85.8707794,134.151211 Z" id="Shape"></path>
                    <path d="M130.126799,34.250058 C121.570116,35.9525456 113.248607,30.3927695 111.549005,21.8332007 C109.846517,13.2738723 115.400282,4.95524876 123.965381,3.25252073 C126.504444,2.74754561 129.017056,2.88845771 131.347877,3.5521393 C127.038756,0.610779436 121.599453,-0.674742952 116.078151,0.422736318 C105.18199,2.58932007 98.1051244,13.1798507 100.271468,24.0755307 C102.437811,34.9716915 113.031227,42.0456716 123.927388,39.8795688 C129.44869,38.7818491 133.980962,35.5177861 136.834071,31.1499917 C134.934884,32.6533748 132.665862,33.7453234 130.126799,34.250058 Z" id="Shape"></path>
                </g>
            </g>
        </g>
    </g>
</svg>